<?xml version="1.0" encoding="UTF-8" standalone="no"?>
<!-- Created with Inkscape (http://www.inkscape.org/) -->

<svg
   xmlns:dc="http://purl.org/dc/elements/1.1/"
   xmlns:cc="http://creativecommons.org/ns#"
   xmlns:rdf="http://www.w3.org/1999/02/22-rdf-syntax-ns#"
   xmlns:svg="http://www.w3.org/2000/svg"
   xmlns="http://www.w3.org/2000/svg"
   xmlns:xlink="http://www.w3.org/1999/xlink"
   xmlns:sodipodi="http://sodipodi.sourceforge.net/DTD/sodipodi-0.dtd"
   xmlns:inkscape="http://www.inkscape.org/namespaces/inkscape"
   width="600"
   height="420"
   viewBox="0 0 158.74999 111.125"
   version="1.1"
   id="svg8"
   inkscape:version="0.92.3 (2405546, 2018-03-11)"
   sodipodi:docname="thephoto.svg"
   inkscape:export-filename="/Users/victor/Documents/Apps/theSlate/app-dmg-background@2x.png"
   inkscape:export-xdpi="192"
   inkscape:export-ydpi="192">
  <defs
     id="defs2">
    <linearGradient
       id="linearGradient5496"
       inkscape:collect="always">
      <stop
         id="stop5492"
         offset="0"
         style="stop-color:#6464ff;stop-opacity:1" />
      <stop
         id="stop5494"
         offset="1"
         style="stop-color:#c8c8ff;stop-opacity:1" />
    </linearGradient>
    <linearGradient
       gradientUnits="userSpaceOnUse"
       y2="-1.4110236e-05"
       x2="800"
       y1="560"
       x1="0"
       id="linearGradient5498"
       xlink:href="#linearGradient5496"
       inkscape:collect="always" />
    <linearGradient
       id="linearGradient1069"
       inkscape:collect="always">
      <stop
         id="stop1065"
         offset="0"
         style="stop-color:#ff6400;stop-opacity:1" />
      <stop
         id="stop1067"
         offset="1"
         style="stop-color:#ffc800;stop-opacity:1" />
    </linearGradient>
    <linearGradient
       gradientTransform="matrix(-0.26458332,0,0,-0.26458332,211.66666,296.99998)"
       gradientUnits="userSpaceOnUse"
       y2="560.00006"
       x2="1.5118126e-05"
       y1="1.2598426e-05"
       x1="800"
       id="linearGradient1027"
       xlink:href="#linearGradient1069"
       inkscape:collect="always" />
    <linearGradient
       gradientUnits="userSpaceOnUse"
       y2="-1.4110236e-05"
       x2="800"
       y1="560"
       x1="0"
       id="linearGradient1071"
       xlink:href="#linearGradient1069"
       inkscape:collect="always" />
  </defs>
  <sodipodi:namedview
     id="base"
     pagecolor="#ffffff"
     bordercolor="#666666"
     borderopacity="1.0"
     inkscape:pageopacity="0.0"
     inkscape:pageshadow="2"
     inkscape:zoom="1.4142136"
     inkscape:cx="191.13383"
     inkscape:cy="144.53621"
     inkscape:document-units="mm"
     inkscape:current-layer="layer1-2"
     showgrid="true"
     units="px"
     inkscape:window-width="1280"
     inkscape:window-height="737"
     inkscape:window-x="1912"
     inkscape:window-y="270"
     inkscape:window-maximized="1">
    <inkscape:grid
       type="xygrid"
       id="grid10"
       empspacing="4"
       spacingx="1.3229166"
       spacingy="1.3229167"
       color="#3f3fff"
       opacity="0.1254902"
       dotted="false" />
    <inkscape:grid
       type="xygrid"
       id="grid3703"
       dotted="true"
       spacingy="5.2916665"
       spacingx="5.2916665"
       originy="2.6458333"
       originx="2.6458333"
       empspacing="1" />
  </sodipodi:namedview>
  <metadata
     id="metadata5">
    <rdf:RDF>
      <cc:Work
         rdf:about="">
        <dc:format>image/svg+xml</dc:format>
        <dc:type
           rdf:resource="http://purl.org/dc/dcmitype/StillImage" />
        <dc:title />
      </cc:Work>
    </rdf:RDF>
  </metadata>
  <g
     inkscape:label="Layer 1"
     inkscape:groupmode="layer"
     id="layer1"
     transform="translate(0,-185.87498)">
    <g
       transform="matrix(0.74999998,0,0,0.75000001,0,74.249996)"
       id="layer1-2"
       inkscape:label="Layer 1">
      <rect
         y="148.83331"
         x="4.4408921e-016"
         height="148.16666"
         width="211.66667"
         id="rect4627"
         style="fill:#ffffff;fill-opacity:1;stroke:none;stroke-width:1.80744827;stroke-linecap:round;stroke-linejoin:round;stroke-miterlimit:4;stroke-dasharray:none;stroke-opacity:1" />
      <path
         id="path1038"
         transform="matrix(0.26458333,0,0,0.26458333,0,148.83331)"
         d="m 740,0 v 0.00195313 h -5 V 317.92578 L 546.66667,506.66667 0,506.66667 C 0,534.42118 0,531.63979 0,560 h 760 40 V 0 Z M 259.99805,75.001953 C 257.23826,75.003305 255.00135,77.240214 255,80 v 30 c -0.0281,2.78168 2.21916,5.05166 5.00098,5.05166 2.78181,0 5.02902,-2.26998 5.00097,-5.05166 V 84.998047 h 24.9961 c 2.82168,0.08841 5.15709,-2.174984 5.15709,-4.998047 0,-2.823063 -2.33541,-5.086453 -5.15709,-4.998047 z m 250.00195,0 c -2.82168,-0.08841 -5.15709,2.174984 -5.15709,4.998047 0,2.823063 2.33541,5.086453 5.15709,4.998047 h 25.00195 V 110 c -0.0883,2.82165 2.17502,5.15699 4.99805,5.15699 2.82303,0 5.0864,-2.33534 4.99805,-5.15699 V 80 C 544.9967,77.240214 542.75979,75.003305 540,75.001953 Z M 259.92383,124.92578 c -2.7599,0.042 -4.96377,2.31234 -4.92383,5.07227 v 30 c -0.002,2.76207 2.23598,5.00255 4.99805,5.0039 h 30 c 2.74259,-0.0272 4.95155,-2.25826 4.95155,-5.00098 0,-2.74271 -2.20896,-4.97373 -4.95155,-5.00097 h -24.9961 v -25.00195 c 0.0408,-2.82038 -2.25779,-5.11635 -5.07812,-5.07227 z m 280.00195,0 c -2.7599,0.042 -4.96377,2.31234 -4.92383,5.07227 V 155 H 510 c -6.60206,0.0656 -6.60206,9.93637 0,10.00195 h 30 c 2.76207,-0.001 4.99993,-2.24183 4.99805,-5.0039 v -30 c 0.0408,-2.81804 -2.25423,-5.11302 -5.07227,-5.07227 z"
         style="color:#000000;font-style:normal;font-variant:normal;font-weight:normal;font-stretch:normal;font-size:medium;line-height:normal;font-family:sans-serif;font-variant-ligatures:normal;font-variant-position:normal;font-variant-caps:normal;font-variant-numeric:normal;font-variant-alternates:normal;font-feature-settings:normal;text-indent:0;text-align:start;text-decoration:none;text-decoration-line:none;text-decoration-style:solid;text-decoration-color:#000000;letter-spacing:normal;word-spacing:normal;text-transform:none;writing-mode:lr-tb;direction:ltr;text-orientation:mixed;dominant-baseline:auto;baseline-shift:baseline;text-anchor:start;white-space:normal;shape-padding:0;clip-rule:nonzero;display:inline;overflow:visible;visibility:visible;opacity:1;isolation:auto;mix-blend-mode:normal;color-interpolation:sRGB;color-interpolation-filters:linearRGB;solid-color:#000000;solid-opacity:1;vector-effect:none;fill:url(#linearGradient1071);fill-opacity:1;fill-rule:nonzero;stroke:none;stroke-width:10;stroke-linecap:round;stroke-linejoin:round;stroke-miterlimit:4;stroke-dasharray:none;stroke-dashoffset:0;stroke-opacity:1;color-rendering:auto;image-rendering:auto;shape-rendering:auto;text-rendering:auto;enable-background:accumulate"
         inkscape:connector-curvature="0"
         sodipodi:nodetypes="ccccccccccccccscccscccscccscccccccccsccccccccccccc" />
      <text
         transform="scale(1.0079053,0.99215673)"
         id="text3726"
         y="187.69438"
         x="104.77925"
         style="font-style:normal;font-weight:normal;font-size:14.00043392px;line-height:1.25;font-family:sans-serif;text-align:center;letter-spacing:0px;word-spacing:0px;text-anchor:middle;fill:#000000;fill-opacity:1;stroke:none;stroke-width:0.35001084"
         xml:space="preserve"><tspan
           id="tspan4566"
           style="font-style:normal;font-variant:normal;font-weight:normal;font-stretch:normal;font-family:Contemporary;-inkscape-font-specification:Contemporary;text-align:center;text-anchor:middle;stroke-width:0.35001084"
           y="187.69438"
           x="104.77925"
           sodipodi:role="line">thePhoto</tspan></text>
    </g>
  </g>
</svg>
