<?xml version="1.0" encoding="UTF-8" standalone="no"?>
<!-- Created with Inkscape (http://www.inkscape.org/) -->

<svg
   xmlns:dc="http://purl.org/dc/elements/1.1/"
   xmlns:cc="http://creativecommons.org/ns#"
   xmlns:rdf="http://www.w3.org/1999/02/22-rdf-syntax-ns#"
   xmlns:svg="http://www.w3.org/2000/svg"
   xmlns="http://www.w3.org/2000/svg"
   xmlns:xlink="http://www.w3.org/1999/xlink"
   xmlns:sodipodi="http://sodipodi.sourceforge.net/DTD/sodipodi-0.dtd"
   xmlns:inkscape="http://www.inkscape.org/namespaces/inkscape"
   width="32"
   height="32"
   viewBox="0 0 8.4666665 8.4666669"
   version="1.1"
   id="svg8"
   inkscape:version="0.92.3 (2405546, 2018-03-11)"
   sodipodi:docname="icon.svg">
  <defs
     id="defs2">
    <linearGradient
       id="linearGradient4495"
       inkscape:collect="always">
      <stop
         id="stop4491"
         offset="0"
         style="stop-color:#6464ff;stop-opacity:1" />
      <stop
         id="stop4493"
         offset="1"
         style="stop-color:#c8c8ff;stop-opacity:1" />
    </linearGradient>
    <linearGradient
       gradientTransform="matrix(3.7795274,0,0,3.7795272,9.536742e-7,-1090.5195)"
       gradientUnits="userSpaceOnUse"
       y2="288.53333"
       x2="8.4666662"
       y1="297"
       x1="0"
       id="linearGradient4497"
       xlink:href="#linearGradient4495"
       inkscape:collect="always" />
  </defs>
  <sodipodi:namedview
     id="base"
     pagecolor="#ffffff"
     bordercolor="#666666"
     borderopacity="1.0"
     inkscape:pageopacity="0.0"
     inkscape:pageshadow="2"
     inkscape:zoom="7.919596"
     inkscape:cx="4.2762707"
     inkscape:cy="10.66063"
     inkscape:document-units="mm"
     inkscape:current-layer="layer1"
     showgrid="true"
     units="px"
     inkscape:window-width="1280"
     inkscape:window-height="737"
     inkscape:window-x="1912"
     inkscape:window-y="279"
     inkscape:window-maximized="1">
    <inkscape:grid
       type="xygrid"
       id="grid10"
       empspacing="4" />
    <inkscape:grid
       type="xygrid"
       id="grid12"
       empspacing="1"
       dotted="true"
       originy="0.13229167"
       originx="0.13229167" />
  </sodipodi:namedview>
  <metadata
     id="metadata5">
    <rdf:RDF>
      <cc:Work
         rdf:about="">
        <dc:format>image/svg+xml</dc:format>
        <dc:type
           rdf:resource="http://purl.org/dc/dcmitype/StillImage" />
        <dc:title></dc:title>
      </cc:Work>
    </rdf:RDF>
  </metadata>
  <g
     inkscape:label="Layer 1"
     inkscape:groupmode="layer"
     id="layer1"
     transform="translate(0,-288.53332)">
    <g
       transform="translate(-0.00131737,0.00264261)"
       id="layer1-7"
       inkscape:label="Layer 1">
      <g
         transform="rotate(15.000001,4.2333287,292.76665)"
         id="g4274">
        <path
           inkscape:connector-curvature="0"
           style="fill:url(#linearGradient4497);fill-opacity:1;stroke:none;stroke-width:0.26458332;stroke-linecap:round;stroke-linejoin:round;stroke-miterlimit:4;stroke-dasharray:none;stroke-opacity:1"
           d="M 16,0 A 15.999999,15.999998 0 0 0 8,2.1660156 V 29.839844 A 15.999999,15.999998 0 0 0 16,32 15.999999,15.999998 0 0 0 24,29.833984 V 2.1601562 A 15.999999,15.999998 0 0 0 16,0 Z M 6,3.515625 A 15.999999,15.999998 0 0 0 0,16 15.999999,15.999998 0 0 0 6,28.470703 Z M 26,3.529297 V 28.484375 A 15.999999,15.999998 0 0 0 32,16 15.999999,15.999998 0 0 0 26,3.529297 Z M 3.5292969,9.8398438 4.4726562,10.15625 2.5253906,16.003906 4.4726562,21.841797 3.5292969,22.160156 1.4765625,16.003906 Z m 24.9433591,0 2.050782,6.1640622 -2.050782,6.15625 -0.945312,-0.318359 1.949218,-5.837891 -1.949218,-5.847656 z"
           transform="matrix(0.26458334,0,0,0.26458336,-2.5232634e-7,288.53332)"
           id="path4489" />
        <path
           inkscape:connector-curvature="0"
           style="fill:#ffffff;fill-opacity:1;stroke:none;stroke-width:2;stroke-miterlimit:4;stroke-dasharray:none;stroke-opacity:1"
           d="M 10,4 V 6 H 22 V 4 Z m 0,4 v 2 H 22 V 8 Z m 0,4 v 2 h 4 v -2 z m 6,0 v 6 h 6 v -6 z m -6,4 v 2 h 4 v -2 z"
           transform="matrix(0.26458334,0,0,0.26458336,-2.5232634e-7,288.53332)"
           id="rect4244" />
      </g>
    </g>
  </g>
</svg>
