<?xml version="1.0" encoding="UTF-8" standalone="no"?>
<!-- Created with Inkscape (http://www.inkscape.org/) -->

<svg
   xmlns:dc="http://purl.org/dc/elements/1.1/"
   xmlns:cc="http://creativecommons.org/ns#"
   xmlns:rdf="http://www.w3.org/1999/02/22-rdf-syntax-ns#"
   xmlns:svg="http://www.w3.org/2000/svg"
   xmlns="http://www.w3.org/2000/svg"
   xmlns:xlink="http://www.w3.org/1999/xlink"
   xmlns:sodipodi="http://sodipodi.sourceforge.net/DTD/sodipodi-0.dtd"
   xmlns:inkscape="http://www.inkscape.org/namespaces/inkscape"
   width="32"
   height="32"
   viewBox="0 0 8.4666665 8.4666669"
   version="1.1"
   id="svg8"
   inkscape:version="0.92.3 (2405546, 2018-03-11)"
   sodipodi:docname="icon-bp.svg">
  <defs
     id="defs2">
    <linearGradient
       inkscape:collect="always"
       id="linearGradient20">
      <stop
         style="stop-color:#0064ff;stop-opacity:1"
         offset="0"
         id="stop16" />
      <stop
         style="stop-color:#00c8ff;stop-opacity:1"
         offset="1"
         id="stop18" />
    </linearGradient>
    <linearGradient
       inkscape:collect="always"
       xlink:href="#linearGradient20"
       id="linearGradient22"
       x1="0"
       y1="297"
       x2="8.4666662"
       y2="288.53333"
       gradientUnits="userSpaceOnUse" />
  </defs>
  <sodipodi:namedview
     id="base"
     pagecolor="#ffffff"
     bordercolor="#666666"
     borderopacity="1.0"
     inkscape:pageopacity="0.0"
     inkscape:pageshadow="2"
     inkscape:zoom="15.839192"
     inkscape:cx="12.806446"
     inkscape:cy="19.016536"
     inkscape:document-units="mm"
     inkscape:current-layer="layer1"
     showgrid="true"
     units="px"
     inkscape:window-width="1920"
     inkscape:window-height="1017"
     inkscape:window-x="-8"
     inkscape:window-y="-8"
     inkscape:window-maximized="1">
    <inkscape:grid
       type="xygrid"
       id="grid10"
       empspacing="4" />
    <inkscape:grid
       type="xygrid"
       id="grid12"
       empspacing="1"
       dotted="true"
       originy="0.13229167"
       originx="0.13229167" />
  </sodipodi:namedview>
  <metadata
     id="metadata5">
    <rdf:RDF>
      <cc:Work
         rdf:about="">
        <dc:format>image/svg+xml</dc:format>
        <dc:type
           rdf:resource="http://purl.org/dc/dcmitype/StillImage" />
        <dc:title></dc:title>
      </cc:Work>
    </rdf:RDF>
  </metadata>
  <g
     inkscape:label="Layer 1"
     inkscape:groupmode="layer"
     id="layer1"
     transform="translate(0,-288.53332)">
    <circle
       id="path14"
       cx="4.2333331"
       cy="292.76666"
       r="4.2333331"
       style="stroke-width:0.26458332;fill-opacity:1;fill:url(#linearGradient22)" />
    <g
       aria-label="An"
       style="font-style:normal;font-variant:normal;font-weight:normal;font-stretch:normal;font-size:4.90897703px;line-height:1.25;font-family:Contemporary;-inkscape-font-specification:Contemporary;letter-spacing:0px;word-spacing:0px;fill:#000000;fill-opacity:1;stroke:none;stroke-width:0.12272441"
       id="text835">
      <path
         d="m 1.8721493,293.44243 -0.2552668,0.65289 q -0.044181,0.12273 -0.1914501,0.12273 H 1.2438002 q -0.044181,0 -0.078544,-0.0295 -0.029454,-0.0344 -0.029454,-0.0785 0,-0.0245 0.019636,-0.0687 l 1.2026994,-3.09756 q 0.063817,-0.162 0.220904,-0.162 h 0.2945386 q 0.1570872,0 0.220904,0.162 l 1.1977903,3.09756 q 0.019636,0.0442 0.019636,0.0687 0,0.0442 -0.034363,0.0785 -0.029454,0.0295 -0.073635,0.0295 H 4.0222812 q -0.1472693,0 -0.1914501,-0.12273 l -0.2552668,-0.65289 z m 1.5316008,-0.44181 -0.6774388,-1.7525 -0.6823478,1.7525 z"
         style="font-style:normal;font-variant:normal;font-weight:normal;font-stretch:normal;font-family:Contemporary;-inkscape-font-specification:Contemporary;stroke-width:0.12272441"
         id="path846" />
      <path
         d="m 7.02995,294.08551 q 0,0.054 -0.039272,0.0933 -0.039272,0.0393 -0.093271,0.0393 H 6.7157755 q -0.053999,0 -0.093271,-0.0393 -0.039272,-0.0393 -0.039272,-0.0933 v -1.29597 q 0,-0.36818 -0.1816321,-0.55963 -0.1816322,-0.19145 -0.5056247,-0.19145 -0.3190835,0 -0.5056246,0.19145 -0.1816322,0.19145 -0.1816322,0.55963 v 1.29597 q 0,0.054 -0.039272,0.0933 -0.039272,0.0393 -0.093271,0.0393 H 4.894545 q -0.053999,0 -0.093271,-0.0393 -0.039272,-0.0393 -0.039272,-0.0933 v -2.28759 q 0,-0.054 0.039272,-0.0933 0.039272,-0.0393 0.093271,-0.0393 h 0.1816322 q 0.053999,0 0.093271,0.0393 0.039272,0.0393 0.039272,0.0933 v 0.15218 q 0.1079975,-0.14236 0.2945387,-0.23563 0.1914501,-0.0982 0.4663528,-0.0982 0.3092655,0 0.5498054,0.13254 0.2405399,0.13255 0.3730823,0.3829 0.1374513,0.24545 0.1374513,0.58417 z"
         style="font-style:normal;font-variant:normal;font-weight:normal;font-stretch:normal;font-family:Contemporary;-inkscape-font-specification:Contemporary;stroke-width:0.12272441"
         id="path848" />
    </g>
    <g
       aria-label="Icon"
       style="font-style:normal;font-weight:normal;font-size:3.26337147px;line-height:1.25;font-family:sans-serif;letter-spacing:0px;word-spacing:0px;fill:#ffffff;fill-opacity:1;stroke:none;stroke-width:0.08158429"
       id="text831">
      <path
         d="m 1.2271878,293.71405 q -0.035897,0 -0.062004,-0.0261 -0.026107,-0.0261 -0.026107,-0.062 v -2.10814 q 0,-0.0359 0.026107,-0.062 0.026107,-0.0261 0.062004,-0.0261 h 0.1337983 q 0.035897,0 0.062004,0.0261 0.026107,0.0261 0.026107,0.062 v 2.10814 q 0,0.0359 -0.026107,0.062 -0.026107,0.0261 -0.062004,0.0261 z"
         style="font-style:normal;font-variant:normal;font-weight:normal;font-stretch:normal;font-family:Contemporary;-inkscape-font-specification:Contemporary;fill:#ffffff;fill-opacity:1;stroke-width:0.08158429"
         id="path837" />
      <path
         d="m 2.6616945,293.46603 q 0.3263372,0 0.4405552,-0.25454 0.022844,-0.049 0.045687,-0.0685 0.022844,-0.0196 0.062004,-0.0196 h 0.097901 q 0.035897,0 0.062004,0.0261 0.026107,0.0228 0.026107,0.0555 0,0.11096 -0.088111,0.23823 -0.088111,0.12727 -0.254543,0.21538 -0.1664319,0.0881 -0.3916046,0.0881 -0.2316993,0 -0.4013947,-0.0979 -0.1696953,-0.0979 -0.2610697,-0.26759 -0.091374,-0.17296 -0.1011645,-0.38508 -0.00326,-0.0392 -0.00326,-0.15012 0,-0.0783 0.00326,-0.11095 0.02937,-0.33287 0.2251726,-0.54172 0.1958023,-0.20886 0.5384563,-0.20886 0.2251727,0 0.3883412,0.0881 0.166432,0.0849 0.2512796,0.21212 0.088111,0.12401 0.094638,0.23497 0.00326,0.0359 -0.026107,0.062 -0.026107,0.0261 -0.062004,0.0261 h -0.097901 q -0.03916,0 -0.062004,-0.0196 -0.022844,-0.0196 -0.045687,-0.0685 -0.114218,-0.25455 -0.4405552,-0.25455 -0.1794854,0 -0.3132836,0.12075 -0.1337983,0.12074 -0.1533785,0.3655 -0.00326,0.0359 -0.00326,0.11748 0,0.0751 0.00326,0.11095 0.022844,0.24475 0.1533785,0.3655 0.1337982,0.12074 0.3132836,0.12074 z"
         style="font-style:normal;font-variant:normal;font-weight:normal;font-stretch:normal;font-family:Contemporary;-inkscape-font-specification:Contemporary;fill:#ffffff;fill-opacity:1;stroke-width:0.08158429"
         id="path839" />
      <path
         d="m 5.2550551,292.7122 q 0.00653,0.0718 0.00653,0.15664 0,0.0783 -0.00653,0.15011 -0.02937,0.33287 -0.2316994,0.53193 -0.1990657,0.1958 -0.5417197,0.1958 -0.342654,0 -0.544983,-0.1958 -0.1990657,-0.19906 -0.228436,-0.53193 -0.00326,-0.0359 -0.00326,-0.15011 0,-0.12075 0.00326,-0.15664 0.026107,-0.33287 0.228436,-0.52867 0.202329,-0.19907 0.544983,-0.19907 0.342654,0 0.5449831,0.19907 0.202329,0.1958 0.228436,0.52867 z m -0.2969668,0.0163 q -0.01958,-0.20885 -0.140325,-0.33613 -0.1174814,-0.12727 -0.3361273,-0.12727 -0.2186458,0 -0.3393906,0.12727 -0.1174814,0.12728 -0.1370616,0.33613 -0.00326,0.0392 -0.00326,0.14033 0,0.0979 0.00326,0.1338 0.01958,0.20885 0.1370616,0.33612 0.1207448,0.12727 0.3393906,0.12727 0.2186459,0 0.3361273,-0.12727 0.1207447,-0.12727 0.140325,-0.33612 0.00653,-0.0718 0.00653,-0.1338 0,-0.062 -0.00653,-0.14033 z"
         style="font-style:normal;font-variant:normal;font-weight:normal;font-stretch:normal;font-family:Contemporary;-inkscape-font-specification:Contemporary;fill:#ffffff;fill-opacity:1;stroke-width:0.08158429"
         id="path841" />
      <path
         d="m 7.1744784,293.62594 q 0,0.0359 -0.026107,0.062 -0.026107,0.0261 -0.062004,0.0261 H 6.9656226 q -0.035897,0 -0.062004,-0.0261 -0.026107,-0.0261 -0.026107,-0.062 v -0.86153 q 0,-0.24475 -0.1207448,-0.37203 -0.1207447,-0.12727 -0.3361272,-0.12727 -0.2121192,0 -0.3361273,0.12727 -0.1207447,0.12728 -0.1207447,0.37203 v 0.86153 q 0,0.0359 -0.026107,0.062 -0.026107,0.0261 -0.062004,0.0261 H 5.7549118 q -0.035897,0 -0.062004,-0.0261 -0.026107,-0.0261 -0.026107,-0.062 v -1.52073 q 0,-0.0359 0.026107,-0.062 0.026107,-0.0261 0.062004,-0.0261 h 0.1207447 q 0.035897,0 0.062004,0.0261 0.026107,0.0261 0.026107,0.062 v 0.10116 q 0.071794,-0.0946 0.1958023,-0.15664 0.1272715,-0.0653 0.3100203,-0.0653 0.2055924,0 0.3654976,0.0881 0.1599052,0.0881 0.2480162,0.25455 0.091374,0.16317 0.091374,0.38834 z"
         style="font-style:normal;font-variant:normal;font-weight:normal;font-stretch:normal;font-family:Contemporary;-inkscape-font-specification:Contemporary;fill:#ffffff;fill-opacity:1;stroke-width:0.08158429"
         id="path843" />
    </g>
  </g>
</svg>
